HIERARCHY
ROOT Hips
{
	OFFSET	0.00	0.00	0.00
	CHANNELS 6 Xposition Yposition Zposition Zrotation Xrotation Yrotation
	JOINT LeftUpLeg
	{
		OFFSET	 0.126116	-0.014019	-0.065224
		CHANNELS 3 Zrotation Xrotation Yrotation
		JOINT LeftLeg
		{
			OFFSET	 0.000000	 0.000000	 0.569914
			CHANNELS 3 Zrotation Xrotation Yrotation
			JOINT LeftFoot
			{
				OFFSET	 0.000000	 0.000000	 0.544423
				CHANNELS 3 Zrotation Xrotation Yrotation
				JOINT LeftToeBase
				{
					OFFSET	 0.000000	 0.000000	 0.207117
					CHANNELS 3 Zrotation Xrotation Yrotation
					End Site
					{
						OFFSET	 0.000000	 0.000000	 0.207117
					}
				}
			}
		}
	}
	JOINT RightUpLeg
	{
		OFFSET	-0.124023	-0.008373	-0.065224
		CHANNELS 3 Zrotation Xrotation Yrotation
		JOINT RightLeg
		{
			OFFSET	 0.000000	 0.000000	 0.570047
			CHANNELS 3 Zrotation Xrotation Yrotation
			JOINT RightFoot
			{
				OFFSET	 0.000000	 0.000000	 0.544354
				CHANNELS 3 Zrotation Xrotation Yrotation
				JOINT RightToeBase
				{
					OFFSET	 0.000000	 0.000000	 0.207540
					CHANNELS 3 Zrotation Xrotation Yrotation
					End Site
					{
						OFFSET	 0.000000	 0.000000	 0.207540
					}
				}
			}
		}
	}
	JOINT Spine
	{
		OFFSET	 0.000184	-0.007763	 0.117403
		CHANNELS 3 Zrotation Xrotation Yrotation
		JOINT Spine1
		{
			OFFSET	 0.000000	 0.000000	 0.137269
			CHANNELS 3 Zrotation Xrotation Yrotation
			JOINT Spine2
			{
				OFFSET	 0.000000	 0.000000	 0.156879
				CHANNELS 3 Zrotation Xrotation Yrotation
				JOINT LeftShoulder
				{
					OFFSET	 0.080501	-0.002496	 0.160144
					CHANNELS 3 Zrotation Xrotation Yrotation
					JOINT LeftArm
					{
						OFFSET	 0.000000	 0.000000	 0.164363
						CHANNELS 3 Zrotation Xrotation Yrotation
						JOINT LeftForeArm
						{
							OFFSET	 0.000000	 0.000000	 0.364576
							CHANNELS 3 Zrotation Xrotation Yrotation
							JOINT LeftHand
							{
								OFFSET	 0.000000	 0.000000	 0.360812
								CHANNELS 3 Zrotation Xrotation Yrotation
								JOINT LeftHandIndex1
								{
									OFFSET	 0.000000	 0.000000	 0.086006
									CHANNELS 3 Zrotation Xrotation Yrotation
									JOINT LeftHandIndex2
									{
										OFFSET	 0.000000	 0.000000	 0.047236
										CHANNELS 3 Zrotation Xrotation Yrotation
										JOINT LeftHandIndex3
										{
											OFFSET	-0.004284	-0.000551	 0.038166
											CHANNELS 3 Zrotation Xrotation Yrotation
											End Site
											{
												OFFSET	-0.004284	-0.000551	 0.038166
											}
										}
									}
								}
							}
						}
					}
				}
				JOINT Neck
				{
					OFFSET	 0.000000	 0.000000	 0.176489
					CHANNELS 3 Zrotation Xrotation Yrotation
					JOINT Head
					{
						OFFSET	 0.000000	-0.001747	 0.077940
						CHANNELS 3 Zrotation Xrotation Yrotation
						End Site
						{
							OFFSET	 0.000000	-0.001747	 0.077940
						}
					}
				}
				JOINT RightShoulder
				{
					OFFSET	-0.080363	 0.000306	 0.159706
					CHANNELS 3 Zrotation Xrotation Yrotation
					JOINT RightArm
					{
						OFFSET	 0.000000	 0.000000	 0.164196
						CHANNELS 3 Zrotation Xrotation Yrotation
						JOINT RightForeArm
						{
							OFFSET	 0.000000	 0.000000	 0.365611
							CHANNELS 3 Zrotation Xrotation Yrotation
							JOINT RightHand
							{
								OFFSET	 0.000000	 0.000000	 0.360648
								CHANNELS 3 Zrotation Xrotation Yrotation
								JOINT RightHandIndex1
								{
									OFFSET	 0.000000	 0.000000	 0.069977
									CHANNELS 3 Zrotation Xrotation Yrotation
									JOINT RightHandIndex2
									{
										OFFSET	 0.000000	 0.000000	 0.052305
										CHANNELS 3 Zrotation Xrotation Yrotation
										JOINT RightHandIndex3
										{
											OFFSET	 0.009002	-0.000782	 0.042196
											CHANNELS 3 Zrotation Xrotation Yrotation
											End Site
											{
												OFFSET	 0.009002	-0.000782	 0.042196
											}
										}
									}
								}
							}
						}
					}
				}
			}
		}
	}
}
MOTION
Frames:    5
Frame Time: 0.03333334
-7.346452	-28.503070	 0.988058	-28.042910	 17.336240	 3.760220	 3.515329	-34.868110	 175.362600	-1.293558	-43.090910	-0.317034	-0.732411	 80.872800	 0.524042	-2.352326	 34.164330	-0.128938	-0.735249	-36.066770	-179.513500	-2.991805	-43.107460	-0.961364	-1.602384	 81.117300	 0.499075	 2.406703	 19.802310	-0.177027	-0.938856	 15.186210	 1.656229	-2.031846	 2.094377	-1.806268	-3.120642	-3.681764	-0.306073	-125.681000	 89.281000	-141.883900	 55.067620	 65.943920	-61.529980	-10.354510	-1.411557	-21.432770	-1.315048	 2.054428	-5.374516	-5.670271	-12.240320	-1.343923	-5.213516	-0.193813	 3.566525	-1.378229	 35.397820	-2.634230	 0.809035	 0.138964	-3.811607	-0.726051	-6.769239	 1.172538	 93.698390	 85.945760	 172.011400	-61.467640	 74.808530	 70.953490	-2.408122	-14.961800	 30.078040	-25.083970	 1.017832	 9.564829	-9.919554	-10.027830	-38.914380	 5.070815	-0.697434	-9.399699	-2.350882	 35.473990	 5.254307
-7.350225	-28.515510	 0.988667	-27.903830	 17.922990	 3.788878	 3.612145	-34.946610	 175.556800	-1.869285	-43.127720	-0.658616	-0.934592	 81.493220	 0.313810	-2.353150	 34.051850	-0.126283	-0.772888	-35.800420	-179.388800	-2.711769	-42.669650	-0.798023	-1.582576	 82.138230	 0.721764	 2.405949	 20.559180	-0.161988	-0.875083	 14.909760	 1.478745	-2.014113	 1.826295	-1.897552	-3.183521	-4.020247	-0.321578	-124.548500	 89.256110	-142.989000	 58.860730	 67.020760	-62.840550	-9.390685	-1.551730	-20.008680	-0.821369	 2.022787	-5.371778	-5.355673	-11.911580	-0.640587	-5.213516	-0.193813	 3.566525	-1.378229	 35.397820	-2.634230	 0.752958	-0.057398	-3.677052	-0.790705	-7.233969	 1.227246	 93.681470	 85.979470	 172.096800	-57.062340	 77.004690	 64.819490	-3.580620	-13.522170	 24.747110	-26.722740	 1.021426	 9.565563	-9.477974	-9.145466	-38.511970	 5.070815	-0.697434	-9.399699	-2.350882	 35.473990	 5.254307
-7.355352	-28.530710	 0.988799	-28.073010	 18.547910	 3.854870	 3.548596	-34.977680	 175.626800	-2.077272	-43.534850	-0.855320	-1.063573	 82.223500	 0.207802	-2.344443	 35.183890	-0.153308	-0.740843	-35.378580	-179.479400	-2.345560	-42.297920	-0.533753	-1.464947	 83.083580	 0.956653	 2.404872	 21.390780	-0.145355	-0.643270	 14.561860	 1.373426	-1.865864	 1.415791	-1.907501	-3.228219	-4.501167	-0.339543	-120.426100	 89.149580	-147.010900	 63.061510	 68.125420	-64.272740	-8.023037	-1.761217	-18.454180	-0.021243	 1.986582	-5.365725	-4.545326	-11.137660	 1.210265	-5.213516	-0.193813	 3.566525	-1.378229	 35.397820	-2.634230	 0.758510	-0.415584	-3.447631	-0.904704	-7.836418	 1.044531	 93.707500	 86.085040	 172.202200	-46.586090	 79.441180	 51.829090	-4.528290	-12.317190	 20.409360	-28.699180	 0.999603	 9.523019	-8.970954	-8.057050	-38.088740	 5.070815	-0.697434	-9.399699	-2.350882	 35.473990	 5.254307
-7.357695	-28.537700	 0.989052	-28.290830	 18.802500	 3.915636	 3.547487	-34.911900	 175.651600	-2.122232	-43.693280	-0.895652	-1.099792	 82.453400	 0.196814	-2.339459	 35.790530	-0.168036	-0.731009	-35.259090	-179.560100	-2.289597	-42.203360	-0.490087	-1.448491	 83.295450	 1.002684	 2.404689	 21.515480	-0.142854	-0.515810	 14.415770	 1.290747	-1.763764	 1.220255	-1.823710	-3.205673	-4.724040	-0.343357	-117.075200	 89.049610	-150.331500	 64.586790	 68.686290	-64.632130	-7.618651	-1.820558	-17.824700	 0.258169	 1.973000	-5.363069	-4.186349	-10.756980	 2.045545	-5.213516	-0.193813	 3.566525	-1.378229	 35.397820	-2.634230	 0.814875	-0.526400	-3.329165	-0.926999	-8.155659	 1.094630	 93.862160	 86.226020	 172.108000	-40.432250	 80.205640	 44.591960	-4.692453	-11.853410	 19.052830	-29.304940	 0.990679	 9.503751	-8.815387	-7.679800	-37.986710	 5.070815	-0.697434	-9.399699	-2.350882	 35.473990	 5.254307
-7.360435	-28.546470	 0.990179	-28.624830	 19.171930	 3.953173	 3.572408	-34.801760	 175.724100	-2.306208	-43.656440	-1.010400	-1.169742	 82.502710	 0.138695	-2.333260	 36.509100	-0.185712	-0.774792	-35.331810	-179.524800	-2.457461	-42.138640	-0.629442	-1.558037	 83.364930	 0.961042	 2.404599	 21.574870	-0.141661	-0.412359	 14.188020	 1.162598	-1.661762	 1.012903	-1.643162	-3.132214	-4.954519	-0.341733	-111.810800	 88.843440	-155.610000	 66.102310	 69.373520	-64.909810	-7.419736	-1.835124	-17.135530	 0.416638	 1.956743	-5.360848	-3.978699	-10.619190	 2.534314	-5.213516	-0.193813	 3.566525	-1.378229	 35.397820	-2.634230	 0.895221	-0.593868	-3.084244	-0.889284	-8.504678	 1.253460	 94.218880	 86.465870	 171.794700	-32.947540	 80.710160	 35.825360	-4.759751	-11.379980	 17.903950	-29.699370	 0.981372	 9.483234	-8.716498	-7.568901	-37.829700	 5.070815	-0.697434	-9.399699	-2.350882	 35.473990	 5.254307
